<?xml version="1.0" standalone="no"?>
<!DOCTYPE svg PUBLIC "-//W3C//DTD SVG 20010904//EN"
 "http://www.w3.org/TR/2001/REC-SVG-20010904/DTD/svg10.dtd">
<svg version="1.0" xmlns="http://www.w3.org/2000/svg"
 width="900.000000pt" height="600.000000pt" viewBox="0 0 900.000000 600.000000"
 preserveAspectRatio="xMidYMid meet">

<g transform="translate(0.000000,600.000000) scale(0.100000,-0.100000)"
fill="#000000" stroke="none">
<path d="M4256 5194 c-87 -19 -143 -48 -158 -80 -10 -22 -9 -32 7 -62 28 -52
85 -76 245 -107 121 -24 184 -39 330 -80 256 -72 578 -236 814 -415 152 -115
166 -130 166 -172 0 -37 -1 -38 -37 -38 -33 0 -60 17 -208 133 -163 126 -320
224 -450 282 -33 14 -73 33 -90 40 -192 89 -625 185 -837 185 -147 0 -255 -46
-292 -125 -32 -67 -12 -127 56 -165 31 -18 64 -23 195 -31 224 -14 338 -35
538 -101 227 -75 413 -172 645 -338 69 -49 135 -101 148 -115 39 -45 24 -95
-28 -95 -30 0 -54 15 -140 91 -105 92 -321 218 -507 295 -363 151 -601 191
-706 118 -83 -58 -104 -146 -55 -235 26 -46 91 -73 211 -89 49 -6 96 -15 105
-20 10 -4 46 -15 82 -23 179 -41 451 -178 640 -321 141 -108 200 -167 200
-199 0 -27 -32 -57 -60 -57 -27 0 -172 91 -270 169 -210 168 -264 201 -332
201 -59 0 -87 -17 -122 -74 -25 -39 -31 -60 -30 -105 0 -36 6 -65 17 -82 10
-15 61 -49 120 -79 169 -88 273 -163 398 -289 135 -136 238 -278 314 -436 99
-205 142 -370 152 -579 l6 -138 56 6 c31 4 92 11 136 16 323 35 678 209 877
431 136 152 181 219 257 388 85 189 134 378 147 572 6 85 4 106 -21 195 -97
355 -194 596 -333 829 -179 298 -403 500 -490 439 -45 -31 -26 -83 90 -239 63
-86 146 -207 200 -295 68 -111 128 -251 128 -300 0 -23 -36 -28 -73 -9 -12 6
-116 107 -232 224 -208 210 -245 244 -400 362 -177 135 -479 301 -663 365
-228 78 -570 168 -635 167 -23 0 -73 -7 -111 -15z"/>
<path d="M2263 4403 c-266 -353 -409 -765 -432 -1243 -8 -176 5 -425 28 -530
6 -25 15 -74 21 -110 33 -202 123 -464 241 -700 311 -621 897 -1127 1554
-1342 131 -43 334 -92 465 -114 162 -27 637 -27 785 -1 553 98 925 272 1265
593 72 69 87 97 26 51 -19 -15 -54 -37 -78 -50 -23 -13 -68 -38 -100 -55 -31
-18 -63 -32 -72 -32 -9 0 -16 -4 -16 -10 0 -5 -5 -10 -12 -10 -6 0 -19 -6 -27
-14 -9 -7 -43 -23 -76 -36 -33 -13 -73 -29 -90 -35 -27 -11 -147 -49 -245 -76
-71 -20 -301 -59 -370 -63 -30 -2 -106 -7 -168 -11 -151 -11 -402 12 -617 55
-143 28 -155 31 -155 40 0 4 -10 8 -22 8 -28 0 -102 19 -143 36 -16 7 -63 23
-102 37 -40 13 -73 27 -73 32 0 4 -4 6 -9 2 -5 -3 -12 -1 -16 5 -3 5 -13 10
-21 10 -26 0 -382 183 -444 228 -2 2 2 7 10 12 16 10 14 11 -30 14 -16 1 -110
55 -110 63 0 2 10 1 23 -2 18 -5 16 -2 -8 14 -16 12 -39 19 -50 17 -11 -3 -29
2 -39 9 -19 14 -19 15 -1 35 10 11 15 23 12 27 -4 3 -7 1 -7 -5 0 -6 -9 -16
-19 -22 -16 -8 -25 -5 -45 12 -14 13 -52 45 -83 73 -32 27 -80 75 -107 105
-27 30 -83 91 -124 135 -41 44 -95 108 -121 143 -25 35 -56 76 -68 90 -13 15
-23 32 -23 39 0 6 -3 13 -7 15 -9 4 -62 82 -81 118 -6 14 -28 52 -47 85 -19
33 -40 71 -45 84 -6 14 -24 54 -40 89 -17 35 -33 75 -36 90 -4 15 -18 51 -30
81 -13 29 -24 62 -24 72 0 11 -4 27 -10 37 -5 9 -22 58 -36 107 -117 411 -136
1026 -44 1415 47 196 86 312 148 443 10 21 -9 0 -55 -60z m957 -3233 c0 -5 -4
-10 -10 -10 -5 0 -10 5 -10 10 0 6 5 10 10 10 6 0 10 -4 10 -10z"/>
<path d="M2550 1869 c0 -5 5 -7 10 -4 6 3 10 8 10 11 0 2 -4 4 -10 4 -5 0 -10
-5 -10 -11z"/>
<path d="M2850 1520 c0 -5 5 -10 10 -10 6 0 10 5 10 10 0 6 -4 10 -10 10 -5 0
-10 -4 -10 -10z"/>
<path d="M3178 1203 c7 -3 16 -2 19 1 4 3 -2 6 -13 5 -11 0 -14 -3 -6 -6z"/>
<path d="M3538 1123 c7 -3 16 -2 19 1 4 3 -2 6 -13 5 -11 0 -14 -3 -6 -6z"/>
<path d="M6320 1095 c-7 -9 -8 -15 -2 -15 5 0 12 7 16 15 3 8 4 15 2 15 -2 0
-9 -7 -16 -15z"/>
<path d="M3410 1076 c0 -3 14 -11 30 -20 33 -16 40 -11 13 10 -17 13 -43 19
-43 10z"/>
<path d="M3500 1040 c0 -5 5 -10 11 -10 5 0 7 5 4 10 -3 6 -8 10 -11 10 -2 0
-4 -4 -4 -10z"/>
</g>
</svg>
